<svg xmlns="http://www.w3.org/2000/svg" xmlns:xlink="http://www.w3.org/1999/xlink" viewBox="0 0 1500 283.68"><defs><style>.cls-1{fill:none;}.cls-2{clip-path:url(#clip-path);}.cls-3{fill:#42b7ff;}.cls-4{fill:#056dbd;}.cls-5{fill:#068bdf;}</style><clipPath id="clip-path" transform="translate(81 3.61)"><path class="cls-1" d="M41.92,74.36H.87V48.49H112.42V74.36h-41V237.81H41.92Zm89.64-25.87H161v76.59h51V48.49h29.45V237.81H212V150.75H161v87.06H131.56ZM366.69,151.37H305.1v61H374l-3.72,25.48H276V48.49h93.61V74.36H305.1v51.33h61.59Zm100.57,34.54c1.6,17,8.94,31.4,27.43,31.4,17.77,0,25.25-10.59,25.25-27.31,0-17-7.79-26.62-32.35-38.38-31.48-15-44.3-28.43-44.3-56.32,0-28.87,18.53-49.63,51.63-49.63,40.53,0,50.81,27.92,51.37,51.73H517.43c-1-10.26-3.83-28.21-23.16-28.21-15,0-21.64,10-21.64,23.62,0,15.17,6.76,22.29,29.47,32.94C535.78,141.48,550,156.9,550,187.4c0,29.79-17.88,53.43-56.12,53.43-41.62,0-54.62-26.83-55.91-54.92Zm198.15-34.54H603.83v61h68.88L669,237.81H574.77V48.49h93.61V74.36H603.83v51.33h61.58Zm61.17,34.55-10.89,51.89H686.24L730.72,48.49H768.9l45.27,189.32h-31l-11-51.89Zm40.23-25.68C758.4,120.5,752.26,93,749.43,75.9h-.75c-2.4,17.1-9,47.47-16.76,84.34ZM885.23,48.49h29.45v164h65.75l-3.18,25.28h-92Zm220.07,93.14c0,67.63-17.64,99.29-60.38,99.29-40.16,0-58.75-31-58.75-99.43,0-67,21.69-95.91,60.09-95.91C1086.82,45.58,1105.3,76.43,1105.3,141.63Zm-88.92-.51c0,48,8.2,74.91,29.3,74.91,22,0,29.41-25.32,29.41-74.74,0-47.79-7.9-70.62-29.5-70.62C1024.36,70.67,1016.38,95.73,1016.38,141.12Zm146,13.77v82.92H1133.1V48.49h55.05c33.51,0,52,18,52,50.75,0,27.69-14.39,39.6-24.81,43.51,15.64,6.65,22.07,20.14,22.07,47.62v7.54c0,20.18.87,29.76,2.6,39.9h-28.64c-2.71-8.66-3.1-24.28-3.1-40.26v-6.74c0-25.87-5.71-35.92-28.53-35.92Zm0-24.11h18.73c21.35,0,29.59-10.25,29.59-30.36,0-17.24-8.13-27.82-26.7-27.82h-21.62Zm105.16-82.29h46.85c47,0,66.13,31,66.13,90.4,0,64.05-18,98.92-68.9,98.92h-44.08Zm29.65,165h13.9c29.27,0,39-22.51,39-74.28,0-45.85-9.74-66-38.74-66h-14.18Z"/></clipPath></defs><g id="Layer_2" data-name="Layer 2"><g id="Layer_3" data-name="Layer 3"><path d="M41.92,74.36H.87V48.49H112.42V74.36h-41V237.81H41.92Z" transform="translate(81 3.61)"/><path d="M131.56,48.49H161v76.59h51V48.49h29.45V237.81H212V150.75H161v87.06H131.56Z" transform="translate(81 3.61)"/><path d="M366.69,151.37H305.1v61H374l-3.72,25.48H276V48.49h93.61V74.36H305.1v51.33h61.59Z" transform="translate(81 3.61)"/><path d="M467.26,185.91c1.6,17,8.94,31.4,27.43,31.4,17.77,0,25.25-10.59,25.25-27.31,0-17-7.79-26.62-32.35-38.38-31.48-15-44.3-28.43-44.3-56.32,0-28.87,18.53-49.63,51.63-49.63,40.53,0,50.81,27.92,51.37,51.73H517.43c-1-10.26-3.83-28.21-23.16-28.21-15,0-21.64,10-21.64,23.62,0,15.17,6.76,22.29,29.47,32.94C535.78,141.48,550,156.9,550,187.4c0,29.79-17.88,53.43-56.12,53.43-41.62,0-54.62-26.83-55.91-54.92Z" transform="translate(81 3.61)"/><path d="M665.41,151.37H603.83v61h68.88L669,237.81H574.77V48.49h93.61V74.36H603.83v51.33h61.58Z" transform="translate(81 3.61)"/><path d="M726.58,185.92l-10.89,51.89H686.24L730.72,48.49H768.9l45.27,189.32h-31l-11-51.89Zm40.23-25.68C758.4,120.5,752.26,93,749.43,75.9h-.75c-2.4,17.1-9,47.47-16.76,84.34Z" transform="translate(81 3.61)"/><path d="M885.23,48.49h29.45v164h65.75l-3.18,25.28h-92Z" transform="translate(81 3.61)"/><path d="M1105.3,141.63c0,67.63-17.64,99.29-60.38,99.29-40.16,0-58.75-31-58.75-99.43,0-67,21.69-95.91,60.09-95.91C1086.82,45.58,1105.3,76.43,1105.3,141.63Zm-88.92-.51c0,48,8.2,74.91,29.3,74.91,22,0,29.41-25.32,29.41-74.74,0-47.79-7.9-70.62-29.5-70.62C1024.36,70.67,1016.38,95.73,1016.38,141.12Z" transform="translate(81 3.61)"/><path d="M1162.36,154.89v82.92H1133.1V48.49h55.05c33.51,0,52,18,52,50.75,0,27.69-14.39,39.6-24.81,43.51,15.64,6.65,22.07,20.14,22.07,47.62v7.54c0,20.18.87,29.76,2.6,39.9h-28.64c-2.71-8.66-3.1-24.28-3.1-40.26v-6.74c0-25.87-5.71-35.92-28.53-35.92Zm0-24.11h18.73c21.35,0,29.59-10.25,29.59-30.36,0-17.24-8.13-27.82-26.7-27.82h-21.62Z" transform="translate(81 3.61)"/><path d="M1267.52,48.49h46.85c47,0,66.13,31,66.13,90.4,0,64.05-18,98.92-68.9,98.92h-44.08Zm29.65,165h13.9c29.27,0,39-22.51,39-74.28,0-45.85-9.74-66-38.74-66h-14.18Z" transform="translate(81 3.61)"/><g class="cls-2"><path class="cls-3" d="M1272.7,199.84c-4.88,3.2-12,6.71-20.48,6.15-7.15-.48-10.32-3.56-18.43-6.15a60.94,60.94,0,0,0-27.31-2.05c-5.76.91-9.79,2.48-15.71,4.78-12.18,4.75-17.12,8.8-21.85,10.93-18.07,8.11-52-3.54-58.71-25.27-4-12.91,1.24-30.79,11.6-35.5,3.76-1.71,7.8-1.51,10.93-1.37,13.32.64,19.81,8.15,21.16,6.83,3-2.87-17.54-48.93-54.62-51.89-5.54-.44-21.81-1.74-32.77,8.2-8.3,7.52-8.6,17-17.75,19.8-6.19,1.88-7.65-2-17.75-.69-3,.38-12.14,1.55-19.12,8.2-1.92,1.82-1.79,2.27-8.19,11.6,0,0-1,1.49-8.19,11.61-5.82,8.21-21.48,28.6-28.68,35.5-20.47,19.63-69.84,23.53-100.37-1.36-22.44-18.31-32.79-50.63-25.26-67.6,1-2.27,3.84-8.64,10.24-10.92,6.23-2.22,14.78-.2,19.12,6.15a16.06,16.06,0,0,1,2.05,13.65c-2.09,6.5-8.15,8.7-7.51,10.24.82,2,12.18,1.3,21.16-3.41,20.86-11,33.23-45.84,21.85-72.37C906.74,71.69,899,53.57,882.85,49c-11.5-3.29-16,3.5-28.68,0-13.35-3.7-12.56-12.46-28-19.12-3.39-1.46-17.46-7.3-32.77-2.73-11.2,3.34-18.58,10.92-24.58,17.07-10.28,10.55-9.72,15.52-17.75,19.8-8.64,4.61-14.06,1.39-24.58,2.73-17.94,2.3-30.13,15.24-38.92,24.58-15.8,16.79-17.82,30.62-26.62,49.16-14.27,30-46.88,73.56-86,76.47-19.41,1.44-43.95-6.87-49.16-22.53-3.31-9.95,1.21-23.84,8.88-26.63,10.14-3.69,21.92,13.51,26.62,10.24,4.06-2.82.94-19.54-9.56-30-12.5-12.51-33-13.68-47.79-8.88-18.44,6-29.48,21-32.09,24.58-8.42,11.7-7.22,18.08-16.38,25.27-2.07,1.61-13.14,10.31-27.31,7.51-12.07-2.39-23.1-12.47-25.27-26-2.35-14.66,6.33-30,19.12-34.14,9.54-3.08,18.39,1,19.12,1.37,9.21,4.43,11.5,12.87,13,12.29,2.88-1.13,4.23-37.42-21.85-54.62-19.15-12.63-42.46-7.63-56,0-18.63,10.5-16.22,32.31-33.46,36.87-9.1,2.4-11.93-2.61-24.58-1.37C301.41,132.54,289.6,143,284.07,148c-30.65,27.26-21.39,60.79-43.69,68.28-8.1,2.72-21.29,2.31-31.41-3.42-7.49-4.23-9.77-9.39-19.12-12.29a39.09,39.09,0,0,0-19.11-.68c-13.81,2.58-14.22,9.4-29.36,14.34A68.68,68.68,0,0,1,97,212.81v67.25H1273Z" transform="translate(81 3.61)"/><path class="cls-4" d="M1418.7,170.84c-4.88,3.2-12,6.71-20.48,6.15-7.15-.48-10.32-3.56-18.43-6.15a60.94,60.94,0,0,0-27.31-2.05c-5.76.91-9.79,2.48-15.71,4.78-12.18,4.75-17.12,8.8-21.85,10.93-18.07,8.11-52-3.54-58.71-25.27-4-12.91,1.24-30.79,11.6-35.5,3.76-1.71,7.8-1.51,10.93-1.37,13.32.64,19.81,8.15,21.16,6.83,3-2.87-17.54-48.93-54.62-51.89-5.54-.44-21.81-1.74-32.77,8.2-8.3,7.52-8.6,17-17.75,19.8-6.19,1.88-7.65-2-17.75-.69-3,.38-12.14,1.55-19.12,8.2-1.92,1.82-1.79,2.27-8.19,11.6,0,0-1,1.49-8.19,11.61-5.82,8.21-21.48,28.6-28.68,35.5-20.47,19.63-69.84,23.53-100.37-1.36-22.44-18.31-32.79-50.63-25.26-67.6,1-2.27,3.84-8.64,10.24-10.92,6.23-2.22,14.78-.2,19.12,6.15a16.06,16.06,0,0,1,2.05,13.65c-2.09,6.5-8.15,8.7-7.51,10.24.82,2,12.18,1.3,21.16-3.41,20.86-11,33.23-45.84,21.85-72.37-1.37-3.21-9.14-21.33-25.26-25.95-11.5-3.29-16,3.5-28.68,0-13.35-3.7-12.56-12.46-28-19.12-3.39-1.46-17.46-7.3-32.77-2.73C928.21,1.44,920.83,9,914.83,15.17c-10.28,10.55-9.72,15.52-17.75,19.8-8.64,4.61-14.06,1.39-24.58,2.73-17.94,2.3-30.13,15.24-38.92,24.58C817.78,79.07,815.76,92.9,807,111.44c-14.27,30-46.88,73.56-86,76.47-19.41,1.44-43.95-6.87-49.16-22.53-3.31-9.95,1.21-23.84,8.88-26.63,10.14-3.69,21.92,13.51,26.62,10.24,4.06-2.82.94-19.54-9.56-30-12.5-12.51-33-13.68-47.79-8.88-18.44,6-29.48,21-32.09,24.58-8.42,11.7-7.22,18.08-16.38,25.27-2.07,1.61-13.14,10.31-27.31,7.51-12.07-2.39-23.1-12.47-25.27-26-2.35-14.66,6.33-30,19.12-34.14,9.54-3.08,18.39,1,19.12,1.37,9.21,4.43,11.5,12.87,13,12.29,2.88-1.13,4.23-37.42-21.85-54.62-19.15-12.63-42.46-7.63-56,0-18.63,10.5-16.22,32.31-33.46,36.87-9.1,2.4-11.93-2.61-24.58-1.37C447.41,103.54,435.6,114,430.07,119c-30.65,27.26-21.39,60.79-43.69,68.28-8.1,2.72-21.29,2.31-31.41-3.42-7.49-4.23-9.77-9.39-19.12-12.29a39.09,39.09,0,0,0-19.11-.68c-13.81,2.58-14.22,9.4-29.36,14.34A68.68,68.68,0,0,1,243,183.81v67.25H1419Z" transform="translate(81 3.61)"/><path class="cls-5" d="M1094.7,194.84c-4.88,3.2-12,6.71-20.48,6.15-7.15-.48-10.32-3.56-18.43-6.15a60.94,60.94,0,0,0-27.31-2.05c-5.76.91-9.79,2.48-15.71,4.78-12.18,4.75-17.12,8.8-21.85,10.93-18.07,8.11-52-3.54-58.71-25.27-4-12.91,1.24-30.79,11.6-35.5,3.76-1.71,7.8-1.51,10.93-1.37,13.32.64,19.81,8.15,21.16,6.83,3-2.87-17.54-48.93-54.62-51.89-5.54-.44-21.81-1.74-32.77,8.2-8.3,7.52-8.6,17-17.75,19.8-6.19,1.88-7.65-2-17.75-.69-3,.38-12.14,1.55-19.12,8.2-1.92,1.82-1.79,2.27-8.19,11.6,0,0-1,1.49-8.19,11.61-5.82,8.21-21.48,28.6-28.68,35.5-20.47,19.63-69.84,23.53-100.37-1.36-22.44-18.31-32.79-50.63-25.26-67.6,1-2.27,3.84-8.64,10.24-10.92,6.23-2.22,14.78-.2,19.12,6.15a16.06,16.06,0,0,1,2.05,13.65c-2.09,6.5-8.15,8.7-7.51,10.24.82,2,12.18,1.3,21.16-3.41,20.86-11,33.23-45.84,21.85-72.37C728.74,66.69,721,48.57,704.85,44c-11.5-3.29-16,3.5-28.68,0-13.35-3.7-12.56-12.46-28-19.12-3.39-1.46-17.46-7.3-32.77-2.73-11.2,3.34-18.58,10.92-24.58,17.07-10.28,10.55-9.72,15.52-17.75,19.8-8.64,4.61-14.06,1.39-24.58,2.73-17.94,2.3-30.13,15.24-38.92,24.58-15.8,16.79-17.82,30.62-26.62,49.16-14.27,30-46.88,73.56-86,76.47-19.41,1.44-43.95-6.87-49.16-22.53-3.31-9.95,1.21-23.84,8.88-26.63,10.14-3.69,21.92,13.51,26.62,10.24,4.06-2.82.94-19.54-9.56-30-12.5-12.51-33-13.68-47.79-8.88-18.44,6-29.48,21-32.09,24.58-8.42,11.7-7.22,18.08-16.38,25.27-2.07,1.61-13.14,10.31-27.31,7.51-12.07-2.39-23.1-12.47-25.27-26-2.35-14.66,6.33-30,19.12-34.14,9.54-3.08,18.39,1,19.12,1.37,9.21,4.43,11.5,12.87,13,12.29,2.88-1.13,4.23-37.42-21.85-54.62-19.15-12.63-42.46-7.63-56,0-18.63,10.5-16.22,32.31-33.46,36.87-9.1,2.4-11.93-2.61-24.58-1.37C123.41,127.54,111.6,138,106.07,143c-30.65,27.26-21.39,60.79-43.69,68.28-8.1,2.72-21.29,2.31-31.41-3.42-7.49-4.23-9.77-9.39-19.12-12.29a39.09,39.09,0,0,0-19.11-.68c-13.81,2.58-14.22,9.4-29.36,14.34a68.11,68.11,0,0,1-26.63,2.73A68.28,68.28,0,0,1-81,207.81v67.25H1095Z" transform="translate(81 3.61)"/></g></g></g></svg>